<?xml version="1.0" encoding="UTF-8"?>
<svg xmlns="http://www.w3.org/2000/svg" version="1.1" viewBox="0 0 187.2 134.4">
  <!-- Generator: Adobe Illustrator 29.8.1, SVG Export Plug-In . SVG Version: 2.1.1 Build 2)  -->
  <defs>
    <style>
      .st0, .st1 {
        fill: #fff;
      }

      .st1 {
        font-family: BoostSSiBold, 'Boost SSi';
        font-size: 12.4px;
      }

      .st2 {
        fill: none;
        stroke: #fff;
        stroke-miterlimit: 10;
        stroke-width: 2px;
      }
    </style>
  </defs>
  <g id="pitbull_head_text">
    <g>
      <polygon class="st2" points="135.3 62.2 132.5 54.2 133.1 46.3 129.1 35.9 134.9 21.6 129.2 8.2 128.5 12.3 123.4 20.2 105.1 15.9 98.5 17.3 92.9 22.6 87.3 17.3 80.7 15.9 62.4 20.2 57.3 12.3 56.6 8.2 50.9 21.6 56.8 35.9 52.7 46.3 53.3 54.2 50.5 62.2 56.8 82.1 63.8 87.1 62.7 95.1 64.4 98.2 77.2 103 90.9 94 94.9 94 108.6 103 121.5 98.2 123.1 95.1 122 87.1 129.1 82.1 135.3 62.2"/>
      <polygon class="st0" points="92.9 96.6 83.2 103.1 93.1 108.5 103.2 103.5 92.9 96.6"/>
      <path class="st0" d="M133.5,101.3c0,.6-.2,1.2-.5,1.7-.3.5-.7.9-1.2,1.2-.5.3-1.1.5-1.7.5s-1.2-.2-1.7-.5-.9-.7-1.2-1.2c-.3-.5-.5-1.1-.5-1.7s.2-1.2.5-1.7c.3-.5.7-.9,1.2-1.2.5-.3,1.1-.5,1.7-.5s1.2.2,1.7.5c.5.3.9.7,1.2,1.2.3.5.5,1.1.5,1.7M132.9,101.3c0-.8-.3-1.4-.8-1.9-.5-.5-1.2-.8-1.9-.8s-1.4.3-1.9.8c-.5.5-.8,1.2-.8,1.9s.3,1.4.8,1.9c.5.5,1.2.8,1.9.8s1.4-.3,1.9-.8c.5-.5.8-1.2.8-1.9M128.6,99.4h1.6c.5,0,.8,0,1,.3.2.2.3.4.3.7s0,.5-.2.6c-.2.2-.4.3-.7.4.1,0,.2.1.3.2,0,0,.2.2.3.4,0,0,.2.4.6,1.1h-1.1c-.3-.7-.6-1.1-.7-1.2-.1-.1-.2-.2-.4-.2s0,0-.1,0v1.4h-.9v-3.6ZM129.5,101h.4c.3,0,.4,0,.6-.1.1,0,.2-.2.2-.3s0-.2-.2-.3c-.1,0-.3-.1-.5-.1h-.4v.9Z"/>
    </g>
    <polygon class="st0" points="125.1 46.3 104.2 52.5 104.3 52.8 120.8 50.6 126.7 46.9 125.1 46.3"/>
    <polygon class="st0" points="112.8 56.5 107.7 53.4 104.9 53.8 108.7 59.7 119.5 56.4 121.9 52.7 123.3 50.3 118.6 50.7 112.8 56.5"/>
    <polyline class="st0" points="129.4 46.3 129 48.4 127.7 50.6 119.4 51 122.2 49.5 125.9 48.6 129.4 46.3"/>
    <polygon class="st0" points="61.2 46.3 82.1 52.5 82 52.8 65.5 50.6 59.7 46.9 61.2 46.3"/>
    <polygon class="st0" points="73.5 56.5 78.6 53.4 81.4 53.8 77.6 59.7 66.8 56.4 64.4 52.7 63 50.3 67.7 50.7 73.5 56.5"/>
    <polyline class="st0" points="56.9 46.3 57.3 48.4 58.6 50.6 66.9 51 64.1 49.5 60.4 48.6 56.9 46.3"/>
    <polygon class="st0" points="125.4 79.7 131 61.8 128.6 54.6 129.4 46.3 125.4 38.2 125 38.4 123.7 42.3 128.5 48.2 127.1 49.9 121.9 50.6 117.9 56 119.8 55.7 122.6 52.5 128.9 56.7 127.3 61.7 113.6 68.4 111.1 75.5 112.6 83.5 107.2 91.7 96.8 85.3 96.8 77.7 98.7 76.2 103.1 75.6 104 71.2 93.1 67.4 93.1 67.4 93.1 67.4 93.1 67.4 93.1 67.4 82.2 71.2 83.2 75.6 87.5 76.2 89.5 77.7 89.5 85.3 79 91.7 73.6 83.5 75.1 75.5 72.7 68.4 59 61.7 57.3 56.7 63.7 52.5 66.4 55.7 68.4 56 64.4 50.6 59.1 49.9 57.7 48.2 62.6 42.3 61 37.9 59.9 38.3 56.6 47.1 57.3 54.6 54.8 61.8 60.4 79.7 67.8 85.5 66.9 93.3 68 94.9 77.8 98.2 90.1 90.1 95.7 90 109.3 99 118.9 95.1 119.3 92.8 119.4 92.2 118.4 85.2 125.4 79.7"/>
  </g>
  <g id="pitbull_text">
    <g>
      <path class="st0" d="M45,122.8c0,1.4-.5,2.4-1.4,3-.7.4-1.8.7-3.3.7s-1.3,0-2.3-.1c-1,0-1.7-.1-2.1-.1v2.6c0,1,.1,1.8.4,2.4h-6.2c.3-.6.4-1.4.4-2.4v-9.2c0-1.1-.2-1.9-.6-2.4h11.4c1.2,0,2.1.3,2.7.8.6.5.8,1.4.8,2.6v2.2ZM39.7,122.7v-2c0-.4,0-.7-.2-.9-.1-.2-.4-.3-.8-.3h-2.8v4.4h2.8c.4,0,.7-.1.8-.3.1-.1.2-.4.2-.9Z"/>
      <path class="st0" d="M55.7,131.3h-6.2c.3-.6.4-1.4.4-2.4v-9.2c0-1-.1-1.8-.4-2.4h6.2c-.3.6-.4,1.4-.4,2.4v9.2c0,1,.1,1.8.4,2.4Z"/>
      <path class="st0" d="M74.3,120.1c-.6-.4-1.3-.6-2-.6h-2.4v9.3c0,1,.1,1.8.4,2.4h-6.2c.3-.6.4-1.4.4-2.4v-9.3h-2.4c-.7,0-1.4.2-2,.6l.4-2.9h13.2l.4,2.9Z"/>
      <path class="st0" d="M83,127.9h-7.6v-3.7h7.6v3.7Z"/>
      <path class="st0" d="M102.4,128.4c0,1.1-.3,1.9-1,2.3-.6.4-1.4.6-2.6.6h-11.4c.3-.6.4-1.4.4-2.4v-9.2c0-1-.1-1.8-.4-2.4h11.4c1.2,0,2,.2,2.6.6.7.5,1,1.2,1,2.3v1.6c0,.9-.3,1.5-.9,1.8-.4.2-1.1.4-2.1.4,1.1.1,1.8.3,2.1.4.6.3,1,.8,1,1.7v2.3ZM97.1,122v-1.7c0-.3,0-.5-.2-.6-.1,0-.3-.1-.7-.1h-3.1v3.3h3.1c.3,0,.6,0,.7-.1.1,0,.2-.3.2-.6ZM97.1,128.2v-2.2c0-.3,0-.6-.2-.7-.1,0-.4-.1-.7-.1h-3.1v3.8h3.1c.3,0,.6,0,.7-.1.1,0,.2-.3.2-.6Z"/>
      <path class="st0" d="M122.4,117.2c-.5.7-.8,1.8-.8,3.3s0,1.6.2,3c.1,1.4.2,2.4.2,3,0,1.5-.3,2.6-.8,3.4-.6.9-1.7,1.4-3.3,1.4h-7c-1.5,0-2.6-.6-3.3-1.7-.5-.9-.7-2.2-.7-4s0-1.5.1-2.7c0-1.2.1-2.1.1-2.7,0-1.3-.2-2.4-.5-3h6.2c-.3.6-.4,1.4-.4,2.4v8c0,.9.4,1.3,1.3,1.3h4.3c.7,0,1.1,0,1.3-.2.2-.1.3-.5.3-1.2v-7.8c0-.7,0-1.1,0-1.3,0-.4-.2-.8-.5-1.2h3.3Z"/>
      <path class="st0" d="M139.4,128.5l-.5,2.8h-12c.3-.6.4-1.4.4-2.4v-9.2c0-1-.1-1.8-.4-2.4h6.2c-.3.6-.4,1.4-.4,2.4v9.3h4.4c1,0,1.8-.2,2.3-.5Z"/>
      <path class="st0" d="M155.7,128.5l-.5,2.8h-12c.3-.6.4-1.4.4-2.4v-9.2c0-1-.1-1.8-.4-2.4h6.2c-.3.6-.4,1.4-.4,2.4v9.3h4.4c1,0,1.8-.2,2.3-.5Z"/>
      <path class="st0" d="M155.7,128.5l-.5,2.8h-12c.3-.6.4-1.4.4-2.4v-9.2c0-1-.1-1.8-.4-2.4h6.2c-.3.6-.4,1.4-.4,2.4v9.3h4.4c1,0,1.8-.2,2.3-.5Z"/>
    </g>
    <text class="st1" transform="translate(155.7 125.2)"><tspan x="0" y="0">®</tspan></text>
  </g>
</svg>