<?xml version="1.0" encoding="UTF-8"?><svg xmlns="http://www.w3.org/2000/svg" viewBox="0 0 476.85 584.72"><defs><style>.cls-1{fill:#fff;}.cls-2{fill:none;stroke:#fff;stroke-miterlimit:10;strokeWidth:10.71px;}</style></defs><g id="black_outline"><polygon class="cls-2" points="462.04 327.62 447.45 285.3 450.37 243.71 429.21 188.99 459.86 113.12 429.94 42.34 426.29 64.23 399.3 105.82 302.99 83.2 267.97 90.5 238.42 118.47 208.87 90.5 173.85 83.2 77.55 105.82 50.55 64.23 46.9 42.34 16.99 113.12 47.63 188.99 26.47 243.71 29.39 285.3 14.8 327.62 47.63 432.68 84.84 458.95 79.01 501.26 87.76 517.31 155.61 542.85 227.84 495.43 249 495.43 321.23 542.85 389.08 517.31 397.84 501.26 392 458.95 429.21 432.68 462.04 327.62"/></g><g id="pitbull_face"><polygon class="cls-1" points="239.52 510.02 184.07 540.66 239.52 572.03 295.7 542.12 239.52 510.02"/><polygon class="cls-1" points="433.11 69.17 436.62 94.02 413.34 124.39 404.22 114.64 433.11 69.17"/><polygon class="cls-1" points="45.82 72.14 42.31 96.98 65.59 127.36 74.71 117.61 45.82 72.14"/><polygon class="cls-1" points="408.51 243.58 297.82 276.61 298.37 277.79 385.57 266.28 416.49 246.88 408.51 243.58"/><polygon class="cls-1" points="343.53 297.7 316.41 281.16 301.91 283.25 321.64 314.49 378.55 296.97 391.68 277.28 398.98 264.87 373.81 266.7 343.53 297.7"/><polyline class="cls-1" points="430.98 243.82 428.91 254.92 422.21 266.28 378.22 268.46 393.25 260.42 412.46 256 430.98 243.82"/><polygon class="cls-1" points="70.93 243.58 181.63 276.61 181.07 277.79 93.88 266.28 62.95 246.88 70.93 243.58"/><polygon class="cls-1" points="135.91 297.7 163.03 281.16 177.53 283.25 157.8 314.49 100.89 296.97 87.76 277.28 80.46 264.87 105.64 266.7 135.91 297.7"/><polyline class="cls-1" points="48.46 243.82 50.54 254.92 57.24 266.28 101.22 268.46 86.19 260.42 66.98 256 48.46 243.82"/><polygon class="cls-1" points="440.16 293.33 438.7 250.28 421.92 203.59 408.78 199.21 400.76 222.56 426.29 253.93 419 262.68 391.27 266.33 370.12 294.79 380.33 293.33 394.92 276.55 428.48 298.43 419.73 324.7 347.5 360.45 334.37 397.66 342.39 439.98 313.94 483.02 258.73 449.25 258.73 409.29 268.95 401.26 292.07 398.49 296.85 374.96 239.53 355.03 239.53 355.02 239.52 355.03 239.51 355.02 239.51 355.03 182.18 374.96 186.97 398.49 210.09 401.26 220.3 409.29 220.3 449.25 165.1 483.02 136.64 439.98 144.67 397.66 131.54 360.45 59.31 324.7 50.55 298.43 84.11 276.55 98.7 293.33 108.92 294.79 87.76 266.33 60.04 262.68 52.74 253.93 78.28 222.56 70.25 199.21 57.12 203.59 40.34 250.28 38.88 293.33 29.39 329.08 60.77 421.74 95.06 450.19 97.98 508.56 151.97 528.99 227.84 481.56 230.76 481.56 248.27 481.56 251.19 481.56 327.07 528.99 381.06 508.56 383.98 450.19 418.27 421.74 449.64 329.08 440.16 293.33"/></g></svg>