<?xml version="1.0" encoding="UTF-8"?><svg id="Layer_1" xmlns="http://www.w3.org/2000/svg" viewBox="0 0 458.51 548.77"><defs><style>.cls-1{fill:#fff;}.cls-2{fill:none;stroke:#fff;stroke-miterlimit:10;stroke-width:10.71px;}</style></defs><g id="black_outline"><polygon class="cls-2" points="452.88 304.36 438.29 262.04 441.21 220.45 420.05 165.73 450.7 89.86 420.78 19.08 417.13 40.97 390.14 82.56 293.83 59.94 258.81 67.24 229.26 95.21 199.71 67.24 164.69 59.94 68.39 82.56 41.39 40.97 37.74 19.08 7.83 89.86 38.47 165.73 17.31 220.45 20.23 262.04 5.64 304.36 38.47 409.42 75.68 435.69 69.85 478 78.6 494.05 146.45 519.59 218.68 472.17 239.84 472.17 312.07 519.59 379.92 494.05 388.68 478 382.84 435.69 420.05 409.42 452.88 304.36"/></g><g id="pitbull_face"><polygon class="cls-1" points="230.36 486.76 174.91 517.4 230.36 548.77 286.54 518.86 230.36 486.76"/><polygon class="cls-1" points="423.95 55.6 427.46 80.45 406 106.74 396.88 96.99 423.95 55.6"/><polygon class="cls-1" points="36.66 58.57 33.15 83.41 53.25 105.77 62.37 96.02 36.66 58.57"/><polygon class="cls-1" points="399.35 220.32 288.66 253.35 289.21 254.53 376.41 243.02 407.33 223.62 399.35 220.32"/><polygon class="cls-1" points="334.37 274.44 307.25 257.9 292.75 259.99 312.48 291.23 369.39 273.71 382.52 254.02 389.82 241.61 364.65 243.44 334.37 274.44"/><polyline class="cls-1" points="421.82 220.56 419.75 231.66 413.05 243.02 369.06 245.2 384.09 237.16 403.3 232.74 421.82 220.56"/><polygon class="cls-1" points="61.77 220.32 172.47 253.35 171.91 254.53 84.72 243.02 53.79 223.62 61.77 220.32"/><polygon class="cls-1" points="126.75 274.44 153.87 257.9 168.37 259.99 148.64 291.23 91.73 273.71 78.6 254.02 71.3 241.61 96.48 243.44 126.75 274.44"/><polyline class="cls-1" points="39.3 220.56 41.38 231.66 48.08 243.02 92.06 245.2 77.03 237.16 57.82 232.74 39.3 220.56"/><polygon class="cls-1" points="423.46 262.49 425.7 223.22 408.6 180.38 399.62 175.95 391.6 199.3 417.13 230.67 409.84 239.42 382.11 243.07 360.96 271.53 371.17 270.07 385.76 253.29 419.32 275.17 410.57 301.44 338.34 337.19 325.21 374.4 333.23 416.72 304.78 459.76 249.57 425.99 249.57 386.03 259.79 378 282.91 375.23 287.69 351.7 230.37 331.77 230.37 331.76 230.36 331.77 230.35 331.76 230.35 331.77 173.02 351.7 177.81 375.23 200.93 378 211.14 386.03 211.14 425.99 155.94 459.76 127.48 416.72 135.51 374.4 122.38 337.19 50.15 301.44 41.39 275.17 74.95 253.29 89.54 270.07 99.76 271.53 78.6 243.07 50.88 239.42 43.58 230.67 69.12 199.3 61.09 175.95 47.96 180.33 31.18 227.02 35.34 264.6 20.23 305.82 52.32 400.58 90.12 425.69 84.4 473.25 90.88 481.12 144.87 501.55 214.13 458.3 221.6 458.3 239.11 458.3 245.84 458.3 313.56 503.46 371.37 481.59 373.98 473.77 367.12 429.62 409.11 398.48 437.83 305.99 423.46 262.49"/></g><path class="cls-1" d="M450.32,505.73c0,2.59-.65,5-1.94,7.24-1.3,2.24-3.06,4-5.3,5.29-2.24,1.29-4.65,1.93-7.24,1.93s-4.99-.65-7.22-1.93-4-3.05-5.3-5.29c-1.3-2.24-1.94-4.65-1.94-7.24s.65-4.99,1.94-7.23c1.3-2.24,3.06-4.01,5.3-5.3,2.24-1.29,4.64-1.93,7.22-1.93s5,.65,7.24,1.93c2.24,1.29,4,3.06,5.3,5.3,1.29,2.24,1.94,4.65,1.94,7.23M447.51,505.73c0-3.22-1.14-5.97-3.42-8.26-2.28-2.28-5.03-3.42-8.26-3.42s-5.97,1.14-8.26,3.42c-2.28,2.28-3.42,5.03-3.42,8.26s1.14,5.97,3.42,8.26c2.28,2.28,5.03,3.42,8.26,3.42s5.97-1.14,8.26-3.42c2.28-2.28,3.42-5.03,3.42-8.26M429.28,497.99h6.92c1.96,0,3.38.4,4.26,1.19.88.79,1.32,1.85,1.32,3.17,0,1.04-.33,1.93-1,2.69-.67.76-1.73,1.31-3.17,1.65.59.23,1.03.47,1.31.72.39.35.8.88,1.23,1.57.03.05.86,1.54,2.5,4.47h-4.55c-1.48-2.94-2.47-4.7-2.98-5.28-.51-.57-1.01-.86-1.52-.86-.11,0-.27.02-.47.06v6.08h-3.85v-15.47ZM433.13,504.55h1.67c1.11,0,1.9-.18,2.35-.54.45-.36.68-.82.68-1.39s-.22-1.03-.65-1.39c-.44-.36-1.18-.54-2.23-.54h-1.82v3.87Z"/></svg>